<svg width="845" height="919" viewBox="0 0 845 919" fill="none" xmlns="http://www.w3.org/2000/svg">
<path d="M217.906 140.94C200.706 58.1399 277.239 14.7732 316.406 3.43992C395.206 -14.5601 452.073 42.4399 471.906 73.4399C477.906 67.4399 589.406 54.9399 646.906 49.4399C659.406 47.2733 698.124 46.747 712.406 67.9399C727.906 90.9399 746.573 172.44 754.406 212.44C782.806 221.64 800.239 244.607 804.406 254.94C836.906 320.44 837.906 371.44 840.906 438.44C843.306 492.04 799.573 502.273 777.906 501.44C803.406 504.44 842.406 522.94 844.906 578.94C846.906 623.74 815.239 650.273 799.406 658.94C810.406 666.94 840.749 684.534 836.406 700.94C831.906 717.94 814.573 728.107 804.406 730.94C811.606 759.74 799.073 773.94 791.906 777.44C817.906 829.44 784.739 860.107 764.906 868.94C736.902 890.462 616.785 897.44 504.906 904.44C401.051 910.937 304.294 918.199 294.906 918.44C275.406 918.94 239.906 912.44 226.406 906.94C215.606 902.54 208.906 887.773 206.906 880.94C188.506 833.74 154.239 685.273 139.406 616.94C128.502 616.366 121.234 614.728 117.197 613.356C149.206 632.857 129.01 620.937 114.049 612.025C113.998 611.996 113.951 611.968 113.906 611.94C113.954 611.968 114.001 611.996 114.049 612.025C114.681 612.39 115.724 612.856 117.197 613.356C115.714 612.453 114.119 611.482 112.406 610.44C63.9061 580.94 35.9061 491.94 28.9061 475.44C21.9061 458.94 19.4061 444.94 20.9061 427.94C22.1061 414.34 42.7395 398.94 52.9061 392.94C47.4061 379.94 31.1061 341.34 9.90614 290.94C-11.2939 240.54 6.40614 219.94 17.9061 215.94C94.3061 178.34 182.239 148.94 217.906 140.94Z" fill="#D9D9D9"/>
</svg>
